<mxfile host="app.diagrams.net" agent="Mozilla/5.0 (Windows NT 10.0; Win64; x64) AppleWebKit/537.36 (KHTML, like Gecko) Chrome/138.0.0.0 Safari/537.36 OPR/122.0.0.0" version="28.2.5">
  <diagram name="Page-1" id="fnJ5Z5p6jG3yeQipFGPc">
    <mxGraphModel dx="2411" dy="2133" grid="1" gridSize="10" guides="1" tooltips="1" connect="1" arrows="1" fold="1" page="1" pageScale="1" pageWidth="850" pageHeight="1100" math="0" shadow="0">
      <root>
        <mxCell id="0" />
        <mxCell id="1" parent="0" />
        <mxCell id="v2L2sZYLWd5Q2BQueESk-3" value="" style="edgeStyle=orthogonalEdgeStyle;rounded=0;orthogonalLoop=1;jettySize=auto;html=1;" parent="1" source="v2L2sZYLWd5Q2BQueESk-1" target="EfV4PX9Q5euiKNqoIc9f-18" edge="1">
          <mxGeometry relative="1" as="geometry">
            <mxPoint x="430" y="160" as="targetPoint" />
          </mxGeometry>
        </mxCell>
        <mxCell id="v2L2sZYLWd5Q2BQueESk-1" value="start" style="ellipse;whiteSpace=wrap;html=1;fillColor=#008a00;fontColor=#ffffff;strokeColor=#005700;" parent="1" vertex="1">
          <mxGeometry x="380" y="-30" width="100" height="50" as="geometry" />
        </mxCell>
        <mxCell id="v2L2sZYLWd5Q2BQueESk-4" value="information()" style="shape=process;whiteSpace=wrap;html=1;backgroundOutline=1;fillColor=#0050ef;fontColor=#ffffff;strokeColor=#001DBC;" parent="1" vertex="1">
          <mxGeometry x="370" y="150" width="120" height="60" as="geometry" />
        </mxCell>
        <mxCell id="v2L2sZYLWd5Q2BQueESk-5" value="billCalculation()" style="shape=process;whiteSpace=wrap;html=1;backgroundOutline=1;fillColor=#0050ef;fontColor=#ffffff;strokeColor=#001DBC;" parent="1" vertex="1">
          <mxGeometry x="370" y="250" width="120" height="60" as="geometry" />
        </mxCell>
        <mxCell id="v2L2sZYLWd5Q2BQueESk-6" value="endOfJob()" style="shape=process;whiteSpace=wrap;html=1;backgroundOutline=1;fillColor=#0050ef;fontColor=#ffffff;strokeColor=#001DBC;" parent="1" vertex="1">
          <mxGeometry x="370" y="350" width="120" height="60" as="geometry" />
        </mxCell>
        <mxCell id="v2L2sZYLWd5Q2BQueESk-8" value="" style="endArrow=classic;html=1;rounded=0;exitX=0.5;exitY=1;exitDx=0;exitDy=0;" parent="1" source="v2L2sZYLWd5Q2BQueESk-4" target="v2L2sZYLWd5Q2BQueESk-5" edge="1">
          <mxGeometry width="50" height="50" relative="1" as="geometry">
            <mxPoint x="370" y="340" as="sourcePoint" />
            <mxPoint x="420" y="290" as="targetPoint" />
          </mxGeometry>
        </mxCell>
        <mxCell id="v2L2sZYLWd5Q2BQueESk-9" value="" style="endArrow=classic;html=1;rounded=0;exitX=0.5;exitY=1;exitDx=0;exitDy=0;" parent="1" source="v2L2sZYLWd5Q2BQueESk-5" target="v2L2sZYLWd5Q2BQueESk-6" edge="1">
          <mxGeometry width="50" height="50" relative="1" as="geometry">
            <mxPoint x="370" y="340" as="sourcePoint" />
            <mxPoint x="420" y="290" as="targetPoint" />
          </mxGeometry>
        </mxCell>
        <mxCell id="v2L2sZYLWd5Q2BQueESk-10" value="stop" style="ellipse;whiteSpace=wrap;html=1;fillColor=#008a00;fontColor=#ffffff;strokeColor=#005700;" parent="1" vertex="1">
          <mxGeometry x="380" y="450" width="100" height="50" as="geometry" />
        </mxCell>
        <mxCell id="v2L2sZYLWd5Q2BQueESk-11" value="" style="endArrow=classic;html=1;rounded=0;exitX=0.5;exitY=1;exitDx=0;exitDy=0;" parent="1" source="v2L2sZYLWd5Q2BQueESk-6" target="v2L2sZYLWd5Q2BQueESk-10" edge="1">
          <mxGeometry width="50" height="50" relative="1" as="geometry">
            <mxPoint x="370" y="340" as="sourcePoint" />
            <mxPoint x="420" y="290" as="targetPoint" />
          </mxGeometry>
        </mxCell>
        <mxCell id="v2L2sZYLWd5Q2BQueESk-14" value="" style="edgeStyle=orthogonalEdgeStyle;rounded=0;orthogonalLoop=1;jettySize=auto;html=1;" parent="1" source="v2L2sZYLWd5Q2BQueESk-12" target="v2L2sZYLWd5Q2BQueESk-13" edge="1">
          <mxGeometry relative="1" as="geometry" />
        </mxCell>
        <mxCell id="v2L2sZYLWd5Q2BQueESk-12" value="information()" style="shape=process;whiteSpace=wrap;html=1;backgroundOutline=1;fillColor=#0050ef;fontColor=#ffffff;strokeColor=#001DBC;" parent="1" vertex="1">
          <mxGeometry x="-285" y="50" width="120" height="60" as="geometry" />
        </mxCell>
        <mxCell id="EfV4PX9Q5euiKNqoIc9f-2" value="" style="edgeStyle=orthogonalEdgeStyle;rounded=0;orthogonalLoop=1;jettySize=auto;html=1;" parent="1" source="v2L2sZYLWd5Q2BQueESk-13" edge="1">
          <mxGeometry relative="1" as="geometry">
            <mxPoint x="-225" y="320" as="targetPoint" />
          </mxGeometry>
        </mxCell>
        <mxCell id="v2L2sZYLWd5Q2BQueESk-13" value="&lt;div&gt;Output: &quot;Please enter Area code (3 digits), phone number (7 digits), and number of texts sent.&lt;/div&gt;Input: Area code (3 digits), Phone number (7 digits), and number of texts sent" style="shape=parallelogram;perimeter=parallelogramPerimeter;whiteSpace=wrap;html=1;fixedSize=1;fillColor=#fa6800;strokeColor=#C73500;fontColor=#000000;" parent="1" vertex="1">
          <mxGeometry x="-370" y="155" width="290" height="105" as="geometry" />
        </mxCell>
        <mxCell id="EfV4PX9Q5euiKNqoIc9f-9" value="return" style="ellipse;whiteSpace=wrap;html=1;fillColor=#008a00;fontColor=#ffffff;strokeColor=#005700;" parent="1" vertex="1">
          <mxGeometry x="-285" y="320" width="120" height="80" as="geometry" />
        </mxCell>
        <mxCell id="EfV4PX9Q5euiKNqoIc9f-21" value="" style="edgeStyle=orthogonalEdgeStyle;rounded=0;orthogonalLoop=1;jettySize=auto;html=1;" parent="1" source="EfV4PX9Q5euiKNqoIc9f-11" target="EfV4PX9Q5euiKNqoIc9f-20" edge="1">
          <mxGeometry relative="1" as="geometry" />
        </mxCell>
        <mxCell id="EfV4PX9Q5euiKNqoIc9f-23" value="" style="edgeStyle=orthogonalEdgeStyle;rounded=0;orthogonalLoop=1;jettySize=auto;html=1;" parent="1" source="EfV4PX9Q5euiKNqoIc9f-24" target="EfV4PX9Q5euiKNqoIc9f-22" edge="1">
          <mxGeometry relative="1" as="geometry" />
        </mxCell>
        <mxCell id="EfV4PX9Q5euiKNqoIc9f-11" value="Number of texts not &amp;lt;100?" style="rhombus;whiteSpace=wrap;html=1;fillColor=#a0522d;strokeColor=#6D1F00;fontColor=#ffffff;" parent="1" vertex="1">
          <mxGeometry x="-250" y="720" width="135" height="102.5" as="geometry" />
        </mxCell>
        <mxCell id="EfV4PX9Q5euiKNqoIc9f-16" value="billCalculation()" style="shape=process;whiteSpace=wrap;html=1;backgroundOutline=1;fillColor=#0050ef;fontColor=#ffffff;strokeColor=#001DBC;" parent="1" vertex="1">
          <mxGeometry x="-242.5" y="570" width="120" height="60" as="geometry" />
        </mxCell>
        <mxCell id="EfV4PX9Q5euiKNqoIc9f-17" value="" style="endArrow=classic;html=1;rounded=0;exitX=0.5;exitY=1;exitDx=0;exitDy=0;" parent="1" source="EfV4PX9Q5euiKNqoIc9f-16" target="EfV4PX9Q5euiKNqoIc9f-11" edge="1">
          <mxGeometry width="50" height="50" relative="1" as="geometry">
            <mxPoint x="-50" y="520" as="sourcePoint" />
            <mxPoint y="470" as="targetPoint" />
          </mxGeometry>
        </mxCell>
        <mxCell id="EfV4PX9Q5euiKNqoIc9f-19" value="" style="edgeStyle=orthogonalEdgeStyle;rounded=0;orthogonalLoop=1;jettySize=auto;html=1;" parent="1" source="EfV4PX9Q5euiKNqoIc9f-18" target="v2L2sZYLWd5Q2BQueESk-4" edge="1">
          <mxGeometry relative="1" as="geometry" />
        </mxCell>
        <mxCell id="EfV4PX9Q5euiKNqoIc9f-18" value="Declarations: Area code, phone number, number of texts sent" style="rounded=0;whiteSpace=wrap;html=1;fillColor=#1ba1e2;fontColor=#ffffff;strokeColor=#006EAF;" parent="1" vertex="1">
          <mxGeometry x="370" y="50" width="120" height="60" as="geometry" />
        </mxCell>
        <mxCell id="EfV4PX9Q5euiKNqoIc9f-20" value="Take $5 and multiply by %14 tax rate and set total as taxes.&lt;div&gt;Add taxes to $5 and set as &#39;Bill&#39;&lt;/div&gt;" style="whiteSpace=wrap;html=1;fillColor=#1ba1e2;strokeColor=#006EAF;fontColor=#ffffff;" parent="1" vertex="1">
          <mxGeometry x="-405" y="840" width="120" height="70" as="geometry" />
        </mxCell>
        <mxCell id="EfV4PX9Q5euiKNqoIc9f-29" value="" style="edgeStyle=orthogonalEdgeStyle;rounded=0;orthogonalLoop=1;jettySize=auto;html=1;entryX=0.5;entryY=0;entryDx=0;entryDy=0;" parent="1" source="EfV4PX9Q5euiKNqoIc9f-35" target="EfV4PX9Q5euiKNqoIc9f-33" edge="1">
          <mxGeometry relative="1" as="geometry">
            <mxPoint x="175" y="1110" as="targetPoint" />
          </mxGeometry>
        </mxCell>
        <mxCell id="EfV4PX9Q5euiKNqoIc9f-22" value="Are number of texts &amp;lt;=200?" style="rhombus;whiteSpace=wrap;html=1;fillColor=#a0522d;strokeColor=#6D1F00;fontColor=#ffffff;" parent="1" vertex="1">
          <mxGeometry x="-70" y="940" width="140" height="120" as="geometry" />
        </mxCell>
        <mxCell id="EfV4PX9Q5euiKNqoIc9f-25" value="" style="edgeStyle=orthogonalEdgeStyle;rounded=0;orthogonalLoop=1;jettySize=auto;html=1;" parent="1" source="EfV4PX9Q5euiKNqoIc9f-11" target="EfV4PX9Q5euiKNqoIc9f-24" edge="1">
          <mxGeometry relative="1" as="geometry">
            <mxPoint x="-115" y="771" as="sourcePoint" />
            <mxPoint y="940" as="targetPoint" />
          </mxGeometry>
        </mxCell>
        <mxCell id="EfV4PX9Q5euiKNqoIc9f-24" value="Take number of texts - 100" style="whiteSpace=wrap;html=1;fillColor=#1ba1e2;strokeColor=#006EAF;fontColor=#ffffff;" parent="1" vertex="1">
          <mxGeometry x="-60" y="840" width="120" height="60" as="geometry" />
        </mxCell>
        <mxCell id="EfV4PX9Q5euiKNqoIc9f-38" value="" style="edgeStyle=orthogonalEdgeStyle;rounded=0;orthogonalLoop=1;jettySize=auto;html=1;" parent="1" source="EfV4PX9Q5euiKNqoIc9f-33" edge="1">
          <mxGeometry relative="1" as="geometry">
            <mxPoint x="300" y="1440" as="targetPoint" />
          </mxGeometry>
        </mxCell>
        <mxCell id="EfV4PX9Q5euiKNqoIc9f-33" value="Are number of texts &amp;lt;100?" style="rhombus;whiteSpace=wrap;html=1;fillColor=#a0522d;strokeColor=#6D1F00;fontColor=#ffffff;" parent="1" vertex="1">
          <mxGeometry x="90" y="1270" width="140" height="120" as="geometry" />
        </mxCell>
        <mxCell id="EfV4PX9Q5euiKNqoIc9f-34" value="" style="edgeStyle=orthogonalEdgeStyle;rounded=0;orthogonalLoop=1;jettySize=auto;html=1;entryX=0.5;entryY=0;entryDx=0;entryDy=0;" parent="1" source="EfV4PX9Q5euiKNqoIc9f-22" target="EfV4PX9Q5euiKNqoIc9f-32" edge="1">
          <mxGeometry relative="1" as="geometry">
            <mxPoint x="70" y="1000" as="sourcePoint" />
            <mxPoint x="160" y="1230" as="targetPoint" />
          </mxGeometry>
        </mxCell>
        <mxCell id="EfV4PX9Q5euiKNqoIc9f-32" value="Take number of texts and multiply by $0.03. Set total to textBill." style="whiteSpace=wrap;html=1;fillColor=#1ba1e2;strokeColor=#006EAF;fontColor=#ffffff;" parent="1" vertex="1">
          <mxGeometry x="85" y="1060" width="150" height="70" as="geometry" />
        </mxCell>
        <mxCell id="EfV4PX9Q5euiKNqoIc9f-36" value="" style="edgeStyle=orthogonalEdgeStyle;rounded=0;orthogonalLoop=1;jettySize=auto;html=1;entryX=0.5;entryY=0;entryDx=0;entryDy=0;" parent="1" source="EfV4PX9Q5euiKNqoIc9f-32" target="EfV4PX9Q5euiKNqoIc9f-35" edge="1">
          <mxGeometry relative="1" as="geometry">
            <mxPoint x="160" y="1170" as="sourcePoint" />
            <mxPoint x="160" y="1270" as="targetPoint" />
          </mxGeometry>
        </mxCell>
        <mxCell id="EfV4PX9Q5euiKNqoIc9f-35" value="Take number of texts - 100" style="whiteSpace=wrap;html=1;fillColor=#1ba1e2;strokeColor=#006EAF;fontColor=#ffffff;" parent="1" vertex="1">
          <mxGeometry x="100" y="1180" width="120" height="60" as="geometry" />
        </mxCell>
        <mxCell id="EfV4PX9Q5euiKNqoIc9f-39" value="Take number of texts and multiply by $0.02. Add total to textBill.&lt;div&gt;Take textBill and add $5 set as baseBill.&lt;/div&gt;&lt;div&gt;Take basBill and multiply by %14,&amp;nbsp;&lt;span style=&quot;background-color: transparent; color: light-dark(rgb(255, 255, 255), rgb(18, 18, 18));&quot;&gt;set total as taxes.&lt;/span&gt;&lt;/div&gt;&lt;div&gt;Add taxes to baseBill and set as &#39;Bill&#39;&lt;/div&gt;" style="whiteSpace=wrap;html=1;fillColor=#1ba1e2;strokeColor=#006EAF;fontColor=#ffffff;" parent="1" vertex="1">
          <mxGeometry x="220" y="1440" width="150" height="130" as="geometry" />
        </mxCell>
        <mxCell id="EfV4PX9Q5euiKNqoIc9f-40" value="" style="endArrow=classic;html=1;rounded=0;exitX=0.5;exitY=1;exitDx=0;exitDy=0;entryX=0.5;entryY=0;entryDx=0;entryDy=0;" parent="1" source="EfV4PX9Q5euiKNqoIc9f-20" target="EfV4PX9Q5euiKNqoIc9f-46" edge="1">
          <mxGeometry width="50" height="50" relative="1" as="geometry">
            <mxPoint x="-10" y="1230" as="sourcePoint" />
            <mxPoint x="-340" y="1470" as="targetPoint" />
            <Array as="points">
              <mxPoint x="-340" y="1440" />
              <mxPoint x="-340" y="1620" />
              <mxPoint x="-182" y="1620" />
            </Array>
          </mxGeometry>
        </mxCell>
        <mxCell id="EfV4PX9Q5euiKNqoIc9f-43" value="&lt;br&gt;&lt;div&gt;&lt;div&gt;Take textBill and add $5 set as baseBill.&lt;/div&gt;&lt;div&gt;Take basBill and multiply by %14,&lt;span style=&quot;background-color: transparent; color: light-dark(rgb(255, 255, 255), rgb(18, 18, 18));&quot;&gt;&amp;nbsp;set total as taxes.&lt;/span&gt;&lt;/div&gt;&lt;div&gt;Add taxes to baseBill and set as &#39;Bill&#39;&lt;/div&gt;&lt;/div&gt;" style="whiteSpace=wrap;html=1;fillColor=#1ba1e2;strokeColor=#006EAF;fontColor=#ffffff;" parent="1" vertex="1">
          <mxGeometry x="-50" y="1440" width="150" height="100" as="geometry" />
        </mxCell>
        <mxCell id="EfV4PX9Q5euiKNqoIc9f-45" value="" style="endArrow=classic;html=1;rounded=0;exitX=0;exitY=0.5;exitDx=0;exitDy=0;entryX=0.5;entryY=0;entryDx=0;entryDy=0;" parent="1" source="EfV4PX9Q5euiKNqoIc9f-33" target="EfV4PX9Q5euiKNqoIc9f-43" edge="1">
          <mxGeometry width="50" height="50" relative="1" as="geometry">
            <mxPoint x="-10" y="1420" as="sourcePoint" />
            <mxPoint x="40" y="1370" as="targetPoint" />
            <Array as="points">
              <mxPoint x="25" y="1330" />
            </Array>
          </mxGeometry>
        </mxCell>
        <mxCell id="EfV4PX9Q5euiKNqoIc9f-46" value="return" style="ellipse;whiteSpace=wrap;html=1;fillColor=#008a00;fontColor=#ffffff;strokeColor=#005700;" parent="1" vertex="1">
          <mxGeometry x="-242.5" y="1710" width="120" height="80" as="geometry" />
        </mxCell>
        <mxCell id="EfV4PX9Q5euiKNqoIc9f-47" value="" style="endArrow=none;html=1;rounded=0;exitX=0;exitY=0.5;exitDx=0;exitDy=0;" parent="1" source="EfV4PX9Q5euiKNqoIc9f-22" edge="1">
          <mxGeometry width="50" height="50" relative="1" as="geometry">
            <mxPoint x="10" y="1430" as="sourcePoint" />
            <mxPoint x="-180" y="1640" as="targetPoint" />
            <Array as="points">
              <mxPoint x="-180" y="1000" />
            </Array>
          </mxGeometry>
        </mxCell>
        <mxCell id="EfV4PX9Q5euiKNqoIc9f-48" value="" style="endArrow=none;html=1;rounded=0;entryX=0.5;entryY=1;entryDx=0;entryDy=0;" parent="1" target="EfV4PX9Q5euiKNqoIc9f-43" edge="1">
          <mxGeometry width="50" height="50" relative="1" as="geometry">
            <mxPoint x="-180" y="1620" as="sourcePoint" />
            <mxPoint x="60" y="1540" as="targetPoint" />
            <Array as="points">
              <mxPoint x="25" y="1620" />
            </Array>
          </mxGeometry>
        </mxCell>
        <mxCell id="EfV4PX9Q5euiKNqoIc9f-50" value="" style="endArrow=none;html=1;rounded=0;exitX=0.5;exitY=1;exitDx=0;exitDy=0;" parent="1" source="EfV4PX9Q5euiKNqoIc9f-39" edge="1">
          <mxGeometry width="50" height="50" relative="1" as="geometry">
            <mxPoint x="10" y="1590" as="sourcePoint" />
            <mxPoint x="20" y="1620" as="targetPoint" />
            <Array as="points">
              <mxPoint x="295" y="1620" />
            </Array>
          </mxGeometry>
        </mxCell>
        <mxCell id="EfV4PX9Q5euiKNqoIc9f-55" value="" style="edgeStyle=orthogonalEdgeStyle;rounded=0;orthogonalLoop=1;jettySize=auto;html=1;" parent="1" source="EfV4PX9Q5euiKNqoIc9f-51" target="EfV4PX9Q5euiKNqoIc9f-54" edge="1">
          <mxGeometry relative="1" as="geometry" />
        </mxCell>
        <mxCell id="EfV4PX9Q5euiKNqoIc9f-51" value="endOfJob()" style="shape=process;whiteSpace=wrap;html=1;backgroundOutline=1;fillColor=#0050ef;fontColor=#ffffff;strokeColor=#001DBC;" parent="1" vertex="1">
          <mxGeometry x="510" y="700" width="120" height="60" as="geometry" />
        </mxCell>
        <mxCell id="EfV4PX9Q5euiKNqoIc9f-57" value="" style="edgeStyle=orthogonalEdgeStyle;rounded=0;orthogonalLoop=1;jettySize=auto;html=1;" parent="1" source="EfV4PX9Q5euiKNqoIc9f-54" target="EfV4PX9Q5euiKNqoIc9f-56" edge="1">
          <mxGeometry relative="1" as="geometry" />
        </mxCell>
        <mxCell id="EfV4PX9Q5euiKNqoIc9f-54" value="Is &#39;Bill&#39; not $10&amp;lt;?" style="rhombus;whiteSpace=wrap;html=1;fillColor=#a0522d;strokeColor=#6D1F00;fontColor=#ffffff;" parent="1" vertex="1">
          <mxGeometry x="525" y="830" width="90" height="80" as="geometry" />
        </mxCell>
        <mxCell id="EfV4PX9Q5euiKNqoIc9f-56" value="output area code, phone number, number of texts with their inputs respectively and display their total bill with customer info after." style="shape=parallelogram;perimeter=parallelogramPerimeter;whiteSpace=wrap;html=1;fixedSize=1;fillColor=#fa6800;strokeColor=#C73500;fontColor=#000000;" parent="1" vertex="1">
          <mxGeometry x="290" y="930" width="220" height="80" as="geometry" />
        </mxCell>
        <mxCell id="EfV4PX9Q5euiKNqoIc9f-58" value="output area code, phone number, number of texts with their inputs respectively and display their total bill" style="shape=parallelogram;perimeter=parallelogramPerimeter;whiteSpace=wrap;html=1;fixedSize=1;fillColor=#fa6800;strokeColor=#C73500;fontColor=#000000;" parent="1" vertex="1">
          <mxGeometry x="630" y="930" width="220" height="80" as="geometry" />
        </mxCell>
        <mxCell id="EfV4PX9Q5euiKNqoIc9f-59" value="" style="endArrow=classic;html=1;rounded=0;exitX=1;exitY=0.5;exitDx=0;exitDy=0;entryX=0.549;entryY=0.009;entryDx=0;entryDy=0;entryPerimeter=0;" parent="1" source="EfV4PX9Q5euiKNqoIc9f-54" target="EfV4PX9Q5euiKNqoIc9f-58" edge="1">
          <mxGeometry width="50" height="50" relative="1" as="geometry">
            <mxPoint x="540" y="960" as="sourcePoint" />
            <mxPoint x="590" y="910" as="targetPoint" />
            <Array as="points">
              <mxPoint x="750" y="870" />
            </Array>
          </mxGeometry>
        </mxCell>
        <mxCell id="EfV4PX9Q5euiKNqoIc9f-60" value="return" style="ellipse;whiteSpace=wrap;html=1;fillColor=#008a00;fontColor=#ffffff;strokeColor=#005700;" parent="1" vertex="1">
          <mxGeometry x="510" y="1160" width="120" height="80" as="geometry" />
        </mxCell>
        <mxCell id="EfV4PX9Q5euiKNqoIc9f-61" value="" style="endArrow=classic;html=1;rounded=0;exitX=0.5;exitY=1;exitDx=0;exitDy=0;entryX=0.5;entryY=0;entryDx=0;entryDy=0;" parent="1" source="EfV4PX9Q5euiKNqoIc9f-56" target="EfV4PX9Q5euiKNqoIc9f-60" edge="1">
          <mxGeometry width="50" height="50" relative="1" as="geometry">
            <mxPoint x="440" y="1170" as="sourcePoint" />
            <mxPoint x="560" y="1120" as="targetPoint" />
            <Array as="points">
              <mxPoint x="400" y="1120" />
              <mxPoint x="570" y="1120" />
            </Array>
          </mxGeometry>
        </mxCell>
        <mxCell id="EfV4PX9Q5euiKNqoIc9f-63" value="" style="endArrow=classic;html=1;rounded=0;exitX=0.5;exitY=1;exitDx=0;exitDy=0;entryX=0.5;entryY=0;entryDx=0;entryDy=0;" parent="1" source="EfV4PX9Q5euiKNqoIc9f-58" target="EfV4PX9Q5euiKNqoIc9f-60" edge="1">
          <mxGeometry width="50" height="50" relative="1" as="geometry">
            <mxPoint x="440" y="1170" as="sourcePoint" />
            <mxPoint x="570" y="1120" as="targetPoint" />
            <Array as="points">
              <mxPoint x="740" y="1120" />
              <mxPoint x="570" y="1120" />
            </Array>
          </mxGeometry>
        </mxCell>
        <mxCell id="6fYk2zmM46KDhanOlkUM-1" value="Yes" style="text;html=1;align=center;verticalAlign=middle;whiteSpace=wrap;rounded=0;" vertex="1" parent="1">
          <mxGeometry x="-80" y="740" width="60" height="30" as="geometry" />
        </mxCell>
        <mxCell id="6fYk2zmM46KDhanOlkUM-2" value="No" style="text;html=1;align=center;verticalAlign=middle;whiteSpace=wrap;rounded=0;" vertex="1" parent="1">
          <mxGeometry x="-320" y="740" width="60" height="30" as="geometry" />
        </mxCell>
        <mxCell id="6fYk2zmM46KDhanOlkUM-6" value="Yes" style="text;html=1;align=center;verticalAlign=middle;whiteSpace=wrap;rounded=0;" vertex="1" parent="1">
          <mxGeometry x="80" y="970" width="60" height="30" as="geometry" />
        </mxCell>
        <mxCell id="6fYk2zmM46KDhanOlkUM-7" value="Yes" style="text;html=1;align=center;verticalAlign=middle;whiteSpace=wrap;rounded=0;" vertex="1" parent="1">
          <mxGeometry x="230" y="1300" width="60" height="30" as="geometry" />
        </mxCell>
        <mxCell id="6fYk2zmM46KDhanOlkUM-8" value="Yes" style="text;html=1;align=center;verticalAlign=middle;whiteSpace=wrap;rounded=0;" vertex="1" parent="1">
          <mxGeometry x="650" y="840" width="60" height="30" as="geometry" />
        </mxCell>
        <mxCell id="6fYk2zmM46KDhanOlkUM-9" value="No" style="text;html=1;align=center;verticalAlign=middle;whiteSpace=wrap;rounded=0;" vertex="1" parent="1">
          <mxGeometry x="-140" y="970" width="60" height="30" as="geometry" />
        </mxCell>
        <mxCell id="6fYk2zmM46KDhanOlkUM-10" value="No" style="text;html=1;align=center;verticalAlign=middle;whiteSpace=wrap;rounded=0;" vertex="1" parent="1">
          <mxGeometry x="440" y="840" width="60" height="30" as="geometry" />
        </mxCell>
        <mxCell id="6fYk2zmM46KDhanOlkUM-11" value="No" style="text;html=1;align=center;verticalAlign=middle;whiteSpace=wrap;rounded=0;" vertex="1" parent="1">
          <mxGeometry x="30" y="1300" width="60" height="30" as="geometry" />
        </mxCell>
      </root>
    </mxGraphModel>
  </diagram>
</mxfile>
